# xmcd CD database file
#
# Track frame offsets:
#	182
#	28865
#	48435
#	69365
#	86760
#	103577
#	129152
#	141792
#	151807
#	165715
#	184777
#	228952
#	298205
#	321685
#
# Disc length: 4401 seconds
#
# Revision: 0
# Processed by: cddbd v1.5.2PL0 Copyright (c) Steve Scherf et al.
# Submitted via: CDex 1.51
#
DISCID=c5112f0e
DTITLE=Gordon Beck - Reasons - Celebration Suite
DYEAR=1983
DGENRE=Jazz
TTITLE0=Stella By Starlight
TTITLE1=Gloria's Step
TTITLE2=Peace
TTITLE3=Solar
TTITLE4=A Nightingale Sang In Barkley Square
TTITLE5=Some Day My Prince Will Come
TTITLE6=Einbahnstrasse
TTITLE7=Opening
TTITLE8=Part I
TTITLE9=Piano Solo
TTITLE10=Part II
TTITLE11=Part III
TTITLE12=Part IV
TTITLE13=Finale
EXTD=YEAR: 1983
EXTT0=
EXTT1=
EXTT2=
EXTT3=
EXTT4=
EXTT5=
EXTT6=
EXTT7=
EXTT8=
EXTT9=
EXTT10=
EXTT11=
EXTT12=
EXTT13=
PLAYORDER=
